<?xml version="1.0" encoding="UTF-8" standalone="no"?>
<!-- Created with Inkscape (http://www.inkscape.org/) -->

<svg
   version="1.1"
   id="svg2"
   xml:space="preserve"
   width="832"
   height="832"
   viewBox="0 0 832 832"
   sodipodi:docname="Basic_Element_15-30_(559).eps"
   xmlns:inkscape="http://www.inkscape.org/namespaces/inkscape"
   xmlns:sodipodi="http://sodipodi.sourceforge.net/DTD/sodipodi-0.dtd"
   xmlns="http://www.w3.org/2000/svg"
   xmlns:svg="http://www.w3.org/2000/svg"><defs
     id="defs6" /><sodipodi:namedview
     id="namedview4"
     pagecolor="#ffffff"
     bordercolor="#666666"
     borderopacity="1.0"
     inkscape:pageshadow="2"
     inkscape:pageopacity="0.0"
     inkscape:pagecheckerboard="0" /><g
     id="g8"
     inkscape:groupmode="layer"
     inkscape:label="ink_ext_XXXXXX"
     transform="matrix(1.3333333,0,0,-1.3333333,0,832)"><g
       id="g10"
       transform="scale(0.1)"><path
         d="m 3120,6240 v 0 c 1716.01,0 3120,-1404 3120,-3120 v 0 C 6240,1404 4836.01,0 3120,0 V 0 C 1404,0 0,1404 0,3120 v 0 c 0,1716 1404,3120 3120,3120 z m 0,-345.59 C 1594.08,5894.41 345.602,4645.92 345.602,3120 v 0 C 345.602,1594.08 1594.08,345.598 3120,345.598 v 0 c 1525.93,0 2774.41,1248.482 2774.41,2774.402 v 0 c 0,1525.92 -1248.48,2774.41 -2774.41,2774.41 v 0"
         style="fill:#000000;fill-opacity:1;fill-rule:evenodd;stroke:none"
         id="path12" /><path
         d="M 2011.04,4963.2 1276.8,4228.97 2385.77,3120 1276.8,2011.04 2011.04,1276.8 3120,2385.77 4228.98,1276.8 4963.2,2011.04 3854.24,3120 4963.2,4228.97 4228.98,4963.2 3120,3854.23 2011.04,4963.2"
         style="fill:#000000;fill-opacity:1;fill-rule:evenodd;stroke:none"
         id="path14" /></g></g></svg>
