<?xml version="1.0" encoding="iso-8859-1"?>
<!-- Generator: Adobe Illustrator 19.0.0, SVG Export Plug-In . SVG Version: 6.00 Build 0)  -->
<svg version="1.1" id="Layer_1" xmlns="http://www.w3.org/2000/svg" xmlns:xlink="http://www.w3.org/1999/xlink" x="0px" y="0px"
	 viewBox="0 0 512 512" style="enable-background:new 0 0 512 512;" xml:space="preserve">
<g>
	<g>
		<path d="M510.699,51.221c-0.171-0.939-0.576-1.792-0.811-2.709c-0.789-3.179-1.643-6.336-2.901-9.323
			c-0.299-0.704-0.747-1.301-1.045-1.963c-1.429-3.093-2.965-6.144-4.885-8.96c-0.299-0.469-0.725-0.853-1.067-1.323
			c-2.048-2.859-4.203-5.653-6.741-8.192c-0.043-0.064-0.128-0.064-0.171-0.128C481.493,7.125,465.579,0,448,0H64
			C46.443,0,30.549,7.125,18.965,18.603c-0.064,0.064-0.128,0.064-0.192,0.128C10.197,27.285,4.501,37.909,1.835,49.429
			c-0.149,0.597-0.405,1.152-0.533,1.749C0.448,55.36,0,59.648,0,64v192v192c0,35.285,28.715,64,64,64h384c35.285,0,64-28.715,64-64
			V256V64C512,59.648,511.552,55.381,510.699,51.221z M64,469.334c-11.776-0.001-21.333-9.558-21.333-21.334V307.499
			l161.835,161.835H64z M72.832,42.667h366.336L256,225.835L72.832,42.667z M448,469.333H307.499l161.835-161.835V448h0
			C469.333,459.776,459.776,469.333,448,469.333z"/>
	</g>
</g>
<g>
</g>
<g>
</g>
<g>
</g>
<g>
</g>
<g>
</g>
<g>
</g>
<g>
</g>
<g>
</g>
<g>
</g>
<g>
</g>
<g>
</g>
<g>
</g>
<g>
</g>
<g>
</g>
<g>
</g>
</svg>
