<?xml version="1.0" encoding="iso-8859-1"?>
<!-- Generator: Adobe Illustrator 19.0.0, SVG Export Plug-In . SVG Version: 6.00 Build 0)  -->
<svg version="1.1" id="Layer_1" xmlns="http://www.w3.org/2000/svg" xmlns:xlink="http://www.w3.org/1999/xlink" x="0px" y="0px"
	 viewBox="0 0 512 512" style="enable-background:new 0 0 512 512;" xml:space="preserve">
<g>
	<g>
		<path d="M448,0H64C28.716,0,0,28.715,0,64v192v192c0,4.352,0.448,8.619,1.301,12.779c0.171,0.853,0.533,1.6,0.725,2.432
			c0.811,3.285,1.685,6.528,3.008,9.643c0.171,0.427,0.469,0.811,0.661,1.237c1.493,3.349,3.179,6.613,5.248,9.664
			c0.064,0.085,0.128,0.149,0.192,0.235c2.24,3.264,4.736,6.4,7.616,9.259c0.043,0.064,0.128,0.064,0.171,0.128
			C30.508,504.875,46.422,512,64,512h384c17.515,0,33.387-7.104,44.949-18.539c0.085-0.085,0.213-0.107,0.299-0.192
			c5.781-5.76,10.219-12.501,13.376-19.755c0.107-0.235,0.256-0.427,0.341-0.64c1.344-3.179,2.261-6.528,3.072-9.899
			c0.192-0.747,0.512-1.429,0.661-2.176c0.853-4.181,1.301-8.448,1.301-12.8V256V64C512,28.715,483.286,0,448,0z M42.667,204.501V64
			c0-11.776,9.579-21.333,21.333-21.333h140.501L42.667,204.501z M72.833,469.333L256,286.165l183.168,183.168H72.833z
			 M469.333,204.501L307.5,42.667H448c11.755,0,21.333,9.557,21.333,21.333V204.501z"/>
	</g>
</g>
<g>
</g>
<g>
</g>
<g>
</g>
<g>
</g>
<g>
</g>
<g>
</g>
<g>
</g>
<g>
</g>
<g>
</g>
<g>
</g>
<g>
</g>
<g>
</g>
<g>
</g>
<g>
</g>
<g>
</g>
</svg>
